<?xml version="1.0" encoding="UTF-8"?>
<svg version="1.1" xmlns="http://www.w3.org/2000/svg" width="160" height="160">
<path d="M0 0 C5.17757304 4.13763316 8.71050279 9.112142 10.015625 15.7109375 C10.90779785 24.9983106 9.20999242 32.02503506 3.265625 39.2734375 C2.523125 40.0778125 1.780625 40.8821875 1.015625 41.7109375 C1.72074219 41.96617188 2.42585938 42.22140625 3.15234375 42.484375 C8.36050239 44.71542795 12.95849044 47.75106301 17.015625 51.7109375 C18.174471 54.92094093 17.76677532 56.24408987 17.015625 59.7109375 C16.025625 61.6909375 16.025625 61.6909375 15.015625 63.7109375 C9.735625 63.7109375 4.455625 63.7109375 -0.984375 63.7109375 C1.72145186 80.5155464 6.1089386 91.12249025 19.27734375 102.5859375 C28.23057827 110.40018135 35.09382089 118.46955963 36.32421875 130.8046875 C36.66942052 139.92638287 36.66942052 139.92638287 33.828125 143.3359375 C22.54337281 148.43141662 9.12340664 148.86321191 -3.05859375 148.87890625 C-3.98549515 148.88223465 -4.91239655 148.88556305 -5.86738586 148.88899231 C-7.8161266 148.89401972 -9.76487583 148.89640194 -11.71362305 148.89624023 C-14.64712202 148.89841911 -17.58023952 148.91659928 -20.51367188 148.93554688 C-57.55479538 149.04706281 -57.55479538 149.04706281 -65.984375 140.7109375 C-67.80193196 132.17109268 -65.4627557 122.09090702 -60.76074219 114.81835938 C-56.66895487 109.11565377 -51.78327654 104.62996553 -46.55078125 100 C-34.94283903 89.50774957 -30.94958658 79.10509489 -28.984375 63.7109375 C-34.264375 63.7109375 -39.544375 63.7109375 -44.984375 63.7109375 C-46.71135941 60.25696867 -47.82365726 57.74865321 -47.765625 53.875 C-45.9764414 48.91896143 -40.35352173 46.22275465 -35.984375 43.7109375 C-34.33434277 43.00410241 -32.67225494 42.32190684 -30.984375 41.7109375 C-31.38269531 41.22625 -31.78101563 40.7415625 -32.19140625 40.2421875 C-37.44447487 33.5959693 -40.62229978 27.63840831 -40.265625 19.00390625 C-39.35986634 11.6194572 -36.67382072 5.6112431 -30.984375 0.7109375 C-21.25046542 -5.45949844 -9.92228471 -6.44557865 0 0 Z " fill="#5D9948" transform="translate(94.984375,7.2890625)"/>
<path d="M0 0 C2.30078125 2.390625 2.30078125 2.390625 4.3125 5.25 C4.98925781 6.18328125 5.66601562 7.1165625 6.36328125 8.078125 C9.19288164 13.12953573 9.88008706 19.27437613 9 25 C6.57450849 32.02631172 2.98486485 36.70214403 -3 41 C-4.33361553 41.99962363 -5.66701677 42.99953337 -7 44 C-6.33871094 44.61746094 -5.67742187 45.23492187 -4.99609375 45.87109375 C1.79148367 52.6793966 1.79148367 52.6793966 2.41015625 56.59765625 C2.04205731 59.69876375 1.39575025 62.2084995 0 65 C-13.34034171 65.62825257 -26.64299051 66.17678395 -40 66 C-41.73481844 62.77309493 -42.83735614 59.90914766 -42.78125 56.1640625 C-40.9920664 51.20802393 -35.36914673 48.51181715 -31 46 C-29.34996777 45.29316491 -27.68787994 44.61096934 -26 44 C-26.39832031 43.5153125 -26.79664063 43.030625 -27.20703125 42.53125 C-32.46009987 35.8850318 -35.63792478 29.92747081 -35.28125 21.29296875 C-34.37549134 13.9085197 -31.68944572 7.9003056 -26 3 C-17.90540854 -2.13125355 -9.01123776 -3.9387641 0 0 Z " fill="#80B54C" transform="translate(90,5)"/>
<path d="M0 0 C6.65181157 0.27261523 12.45905623 1.06158409 18 5 C22.20787868 11.31181801 19.08354456 21.03206063 17.765625 28.1484375 C17.26937789 30.55915371 16.7641101 32.96802998 16.25 35.375 C16.01023438 36.59316406 15.77046875 37.81132813 15.5234375 39.06640625 C14.09412736 45.82247533 12.85194419 50.96784074 8 56 C2.50010643 59.28921771 -2.46855863 59.4413716 -8.6875 59.3125 C-10.00717773 59.29775635 -10.00717773 59.29775635 -11.35351562 59.28271484 C-27.81355612 58.95919825 -27.81355612 58.95919825 -35 55 C-32.37722685 44.1592043 -25.25119658 37.80603242 -16.98046875 30.7734375 C-6.88145873 21.73014254 -2.87235358 13.05615261 0 0 Z " fill="#80B54B" transform="translate(66,76)"/>
<path d="M0 0 C0.66 0.33 1.32 0.66 2 1 C2.4375 3.5625 2.4375 3.5625 2 7 C-1.58416875 11.96023354 -6.45653159 15.53623626 -12 18 C-16.27906977 17.72093023 -16.27906977 17.72093023 -18 16 C-18.44341984 12.18658939 -18.15445955 10.28603619 -16.3125 6.875 C-11.32176174 0.67029838 -7.85124928 -0.94091593 0 0 Z " fill="#B0DE67" transform="translate(81,9)"/>
</svg>
